<svg xmlns="http://www.w3.org/2000/svg" width="2500" height="1686">
  <defs><linearGradient id="fade0" x1="0" y1="0" x2="0" y2="1">
    <stop offset="0" stop-color="#241b10" stop-opacity="0"/>
    <stop offset="1" stop-color="#241b10" stop-opacity="0.82"/>
  </linearGradient>
<linearGradient id="fade1" x1="0" y1="0" x2="0" y2="1">
    <stop offset="0" stop-color="#241b10" stop-opacity="0"/>
    <stop offset="1" stop-color="#241b10" stop-opacity="0.82"/>
  </linearGradient>
<linearGradient id="fade2" x1="0" y1="0" x2="0" y2="1">
    <stop offset="0" stop-color="#241b10" stop-opacity="0"/>
    <stop offset="1" stop-color="#241b10" stop-opacity="0.82"/>
  </linearGradient>
<linearGradient id="fade3" x1="0" y1="0" x2="0" y2="1">
    <stop offset="0" stop-color="#241b10" stop-opacity="0"/>
    <stop offset="1" stop-color="#241b10" stop-opacity="0.82"/>
  </linearGradient>
<linearGradient id="fade4" x1="0" y1="0" x2="0" y2="1">
    <stop offset="0" stop-color="#241b10" stop-opacity="0"/>
    <stop offset="1" stop-color="#241b10" stop-opacity="0.82"/>
  </linearGradient>
<linearGradient id="fade5" x1="0" y1="0" x2="0" y2="1">
    <stop offset="0" stop-color="#241b10" stop-opacity="0"/>
    <stop offset="1" stop-color="#241b10" stop-opacity="0.82"/>
  </linearGradient></defs>
  <rect x="0" y="503" width="834" height="340" fill="url(#fade0)"/>
    <line x1="377" y1="609" x2="457" y2="609" stroke="#c9a262" stroke-width="5"/>
    <text x="417" y="693" font-family="'Leelawadee UI', Tahoma, 'Segoe UI', sans-serif" font-size="64" font-weight="700" fill="#fdf9f0" text-anchor="middle">ดูผลงานจริง</text>
    <text x="417" y="755" font-family="Georgia, 'Times New Roman', serif" font-size="30" letter-spacing="8" fill="#dcc294" text-anchor="middle">PORTFOLIO</text>
  
<rect x="842.1666666666666" y="184" width="256" height="62" rx="31" fill="#f7f1e6" opacity="0.94"/>
            <text x="970.1666666666666" y="227" font-family="'Leelawadee UI', Tahoma, 'Segoe UI', sans-serif" font-size="34" font-weight="700" fill="#57614a" text-anchor="middle">ผ้าม่าน</text><rect x="1122.5" y="184" width="256" height="62" rx="31" fill="#f7f1e6" opacity="0.94"/>
            <text x="1250.5" y="227" font-family="'Leelawadee UI', Tahoma, 'Segoe UI', sans-serif" font-size="34" font-weight="700" fill="#57614a" text-anchor="middle">วอลล์เปเปอร์</text><rect x="1402.8333333333333" y="184" width="256" height="62" rx="31" fill="#f7f1e6" opacity="0.94"/>
            <text x="1530.8333333333333" y="227" font-family="'Leelawadee UI', Tahoma, 'Segoe UI', sans-serif" font-size="34" font-weight="700" fill="#57614a" text-anchor="middle">มู่ลี่</text><rect x="834" y="503" width="833" height="340" fill="url(#fade1)"/>
    <line x1="1210.5" y1="609" x2="1290.5" y2="609" stroke="#c9a262" stroke-width="5"/>
    <text x="1250.5" y="693" font-family="'Leelawadee UI', Tahoma, 'Segoe UI', sans-serif" font-size="64" font-weight="700" fill="#fdf9f0" text-anchor="middle">บริการทั้งหมด</text>
    <text x="1250.5" y="755" font-family="Georgia, 'Times New Roman', serif" font-size="30" letter-spacing="8" fill="#dcc294" text-anchor="middle">SERVICES</text>
  

        <rect x="1667" y="0" width="833" height="843" fill="#7c8767"/>
        <rect x="1709" y="42" width="749" height="759" fill="none" stroke="#dcc294" stroke-width="3" opacity="0.75"/>
        <path d="M2041.5 249.5 L2101.5 249.5 L2131.5 279.5 L2071.5 339.5 L2035.5 303.5 Z" fill="none" stroke="#dcc294" stroke-width="8" stroke-linejoin="round"/>
        <circle cx="2085.5" cy="267.5" r="7" fill="#dcc294"/>
        <text x="2083.5" y="461.5" font-family="'Leelawadee UI', Tahoma, 'Segoe UI', sans-serif" font-size="68" font-weight="700" fill="#f7f1e6" text-anchor="middle">ขอประเมินราคาฟรี</text>
        <text x="2083.5" y="533.5" font-family="Georgia, 'Times New Roman', serif" font-size="34" letter-spacing="8" fill="#dcc294" text-anchor="middle">FREE QUOTE</text>
      

        <rect x="0" y="843" width="834" height="843" fill="#f7f1e6"/>
        <rect x="42" y="885" width="750" height="759" fill="none" stroke="#c9a262" stroke-width="3" opacity="0.75"/>
        <path d="M381 1088.5 q12 -10 22 2 l12 17 q5 10 -5 17 l-10 7 q12 29 36 41 l7 -10 q7 -10 17 -5 l17 12 q12 10 2 22 q-17 22 -41 10 q-46 -22 -65 -67 q-10 -24 8 -46 Z" fill="#c9a262"/>
        <text x="417" y="1304.5" font-family="'Leelawadee UI', Tahoma, 'Segoe UI', sans-serif" font-size="68" font-weight="700" fill="#57614a" text-anchor="middle">โทรหาร้าน</text>
        <text x="417" y="1376.5" font-family="Georgia, 'Times New Roman', serif" font-size="34" letter-spacing="8" fill="#c9a262" text-anchor="middle">098-910-4978</text>
      

        <rect x="834" y="843" width="833" height="843" fill="#f7f1e6"/>
        <g stroke="#7c8767" stroke-width="14" opacity="0.35" stroke-linecap="round">
          <line x1="894" y1="1053" x2="1607" y2="993"/>
          <line x1="924" y1="1273" x2="1627" y2="1213"/>
          <line x1="1034" y1="923" x2="984" y2="1403"/>
          <line x1="1304" y1="903" x2="1264" y2="1433"/>
          <line x1="1524" y1="943" x2="1494" y2="1403"/>
        </g>
        <g stroke="#c9a262" stroke-width="20" opacity="0.55" stroke-linecap="round">
          <line x1="874" y1="1173" x2="1627" y2="1103"/>
        </g>
        <path d="M1250.5 1089.5 a70 70 0 0 1 70 70 q0 58 -70 122 q-70 -64 -70 -122 a70 70 0 0 1 70 -70 Z" fill="#c9a262"/>
        <circle cx="1250.5" cy="1159.5" r="30" fill="#f7f1e6"/>
        <ellipse cx="1250.5" cy="1346.5" rx="90" ry="16" fill="#7c8767" opacity="0.25"/>
        <text x="1250.5" y="939" font-family="'Leelawadee UI', Tahoma, 'Segoe UI', sans-serif" font-size="30" fill="#57614a" opacity="0.8" text-anchor="middle">ซอยลาดพร้าว 64 แยก 12</text>
        
    <line x1="1210.5" y1="1452" x2="1290.5" y2="1452" stroke="#c9a262" stroke-width="5"/>
    <text x="1250.5" y="1536" font-family="'Leelawadee UI', Tahoma, 'Segoe UI', sans-serif" font-size="64" font-weight="700" fill="#57614a" text-anchor="middle">ที่ตั้งร้าน</text>
    <text x="1250.5" y="1598" font-family="Georgia, 'Times New Roman', serif" font-size="30" letter-spacing="8" fill="#c9a262" text-anchor="middle">MAP</text>
  
      

        <rect x="1718" y="894" width="731" height="561" rx="20" fill="none" stroke="#dcc294" stroke-width="6"/>
        <rect x="1723" y="899" width="721" height="78" rx="18" fill="#f7f1e6"/>
        <rect x="1723" y="959" width="721" height="18" fill="#f7f1e6"/>
        <circle cx="1767" cy="938" r="11" fill="#c9a262"/>
        <circle cx="1805" cy="938" r="11" fill="#7c8767"/>
        <circle cx="1843" cy="938" r="11" fill="#dcc294"/>
        <rect x="1879" y="913" width="521" height="50" rx="25" fill="#fff" opacity="0.9"/>
        <text x="1903" y="949" font-family="Georgia, 'Times New Roman', serif" font-size="30" letter-spacing="2" fill="#57614a">curtainstoryhome.com</text>
        
    <line x1="2043.5" y1="1506" x2="2123.5" y2="1506" stroke="#c9a262" stroke-width="5"/>
    <text x="2083.5" y="1590" font-family="'Leelawadee UI', Tahoma, 'Segoe UI', sans-serif" font-size="64" font-weight="700" fill="#fdf9f0" text-anchor="middle">เว็บไซต์</text>
    <text x="2083.5" y="1652" font-family="Georgia, 'Times New Roman', serif" font-size="30" letter-spacing="8" fill="#dcc294" text-anchor="middle">curtainstoryhome.com</text>
  
      
  
    <rect x="0" y="0" width="2500" height="150" fill="#f7f1e6"/>
    <line x1="0" y1="147" x2="2500" y2="147" stroke="#c9a262" stroke-width="4"/>
    <text x="1140" y="91" font-family="Georgia, 'Times New Roman', serif" font-size="46" letter-spacing="10" fill="#57614a" text-anchor="end">CURTAIN STORY</text>
    <text x="1360" y="91" font-family="Georgia, 'Times New Roman', serif" font-size="46" letter-spacing="10" fill="#c9a262" text-anchor="start">HOME</text>
    <line x1="120" y1="75" x2="770" y2="75" stroke="#dcc294" stroke-width="2"/>
    <line x1="1650" y1="75" x2="2380" y2="75" stroke="#dcc294" stroke-width="2"/>
  
  
  <line x1="833.3333333333334" y1="150" x2="833.3333333333334" y2="1686" stroke="#c9a262" stroke-width="4"/>
  <line x1="1666.6666666666667" y1="150" x2="1666.6666666666667" y2="1686" stroke="#c9a262" stroke-width="4"/>
  <line x1="0" y1="843" x2="2500" y2="843" stroke="#c9a262" stroke-width="4"/>

</svg>